<?xml version="1.0" encoding="UTF-8"?>
<svg id="Layer_2" data-name="Layer 2" xmlns="http://www.w3.org/2000/svg" viewBox="0 0 59.09 59.09">
  <defs>
    <style>
      .cls-1 {
        fill: #eb6f92;
      }

      .cls-2 {
        fill: #f9f9f9;
      }
    </style>
  </defs>
  <g id="Layer_3" data-name="Layer 3">
    <circle class="cls-1" cx="29.54" cy="29.54" r="29.54"/>
  </g>
  <g id="Layer_2-2" data-name="Layer 2">
    <path class="cls-2" d="M26.51,42.31l-2.15.19c-.62-.06-1.21-.08-1.83-.22-3.99-.9-4.03-4.45-6.53-6.87-.26-.25-.97-.62-.56-1.06.3-.33,1.48-.05,1.88.11,1.74.7,2.1,2.48,3.47,3.6,1.17.96,2.65,1.36,4.16,1.17.59-.07,1.32-.15,1.53-.77.14-.42.47-1.64.52-2.06.17-1.39-1.48-1.46-2.41-1.77-3.8-1.29-6.27-4.29-6.23-8.4.02-1.64.17-5.04.87-6.47.32-.66.72-.97,1.13-1.5s.06-.89-.07-1.42c-.29-1.18-.3-3.29.29-4.38.25-.47.9-.15,1.28.01.74.32,1.52.92,2.09,1.49.24.24.44.57.7.79.95.81,1.75.29,2.77.06,2.35-.51,5.17-.53,7.52.02.68.16,1.28.5,2,.26.64-.21,1.24-1.12,1.77-1.58s1.84-1.34,2.51-1.29c.24.02.29.09.38.3.45.98.56,2.65.4,3.71-.07.47-.42,1.33-.34,1.72.05.25.61.79.8,1.06,1.12,1.63,1.25,3.86,1.32,5.78.18,4.93-1.44,8.24-6.26,9.86-1,.34-2.43.33-2.3,1.77.03.28.18.63.25.93.3,1.35.3,3.03.25,4.42-.06,1.73-.36,3.11-1.82,4.2-3.03,2.27-7.42.15-7.38-3.64Z"/>
  </g>
</svg>